<?xml version="1.0" ?><svg viewBox="0 0 64 64" xmlns="http://www.w3.org/2000/svg"><title/><g data-name="22" id="_22"><path d="M41,21h9.25a3.73,3.73,0,0,1,3.49,2.37,1,1,0,0,0,.93.63,1,1,0,0,0,.37-.07,1,1,0,0,0,.56-1.3A5.74,5.74,0,0,0,50.25,19H41a1,1,0,0,0,0,2Z"/><path d="M33,21h5a1,1,0,0,0,0-2H33a1,1,0,0,0,0,2Z"/><path d="M24,21h5a1,1,0,0,0,0-2H24a1,1,0,0,0,0,2Z"/><path d="M60.76,46.35a26.52,26.52,0,0,1-3.85-5.93,22.62,22.62,0,0,1-2-12.67A5.75,5.75,0,0,0,59,22.25v-.5A5.76,5.76,0,0,0,53.25,16H10.75A5.76,5.76,0,0,0,5,21.75v.5a5.75,5.75,0,0,0,4.08,5.5,22.7,22.7,0,0,1-2,12.67,26.92,26.92,0,0,1-3.86,5.93A1,1,0,0,0,4,48h6a.71.71,0,0,0,.2,0l.14,0a1,1,0,0,0,.33-.2L12,46.53l1.33,1.21a1,1,0,0,0,.31.19A.92.92,0,0,0,14,48h4a.71.71,0,0,0,.2,0l.14,0a1,1,0,0,0,.33-.2L20,46.53l1.33,1.21a1,1,0,0,0,.31.19A.92.92,0,0,0,22,48h4a.71.71,0,0,0,.2,0l.14,0a1,1,0,0,0,.33-.2L28,46.53l1.33,1.21a1,1,0,0,0,.31.19A.92.92,0,0,0,30,48h4a.71.71,0,0,0,.2,0l.14,0a1,1,0,0,0,.33-.2L36,46.53l1.33,1.21a1,1,0,0,0,.31.19A.92.92,0,0,0,38,48h4a.71.71,0,0,0,.2,0l.14,0a1,1,0,0,0,.33-.2L44,46.53l1.33,1.21a1,1,0,0,0,.31.19A.92.92,0,0,0,46,48h4a.71.71,0,0,0,.2,0l.14,0a1,1,0,0,0,.33-.2L52,46.53l1.33,1.21a1,1,0,0,0,.31.19A.92.92,0,0,0,54,48h6a1,1,0,0,0,.76-1.65ZM7,22.25v-.5A3.75,3.75,0,0,1,10.75,18h42.5A3.75,3.75,0,0,1,57,21.75v.5A3.75,3.75,0,0,1,53.25,26H10.75A3.75,3.75,0,0,1,7,22.25ZM54.39,46l-1.72-1.56a1,1,0,0,0-1.34,0L49.61,46H46.39l-1.72-1.56a1,1,0,0,0-1.34,0L41.61,46H38.39l-1.72-1.56a1,1,0,0,0-1.34,0L33.61,46H30.39l-1.72-1.56a1,1,0,0,0-1.34,0L25.61,46H22.39l-1.72-1.56a1,1,0,0,0-1.34,0L17.61,46H14.39l-1.72-1.56a1,1,0,0,0-1.34,0L9.61,46H6.07a28.65,28.65,0,0,0,2.84-4.73A24.56,24.56,0,0,0,11.14,28H52.86A24.47,24.47,0,0,0,55.1,41.27,27.92,27.92,0,0,0,57.93,46Z"/><path d="M17.91,29A1,1,0,0,0,17,30.09c.27,2.93.48,11-1.71,13.2a1,1,0,0,0,0,1.42,1,1,0,0,0,1.42,0c3.23-3.24,2.39-13.63,2.29-14.8A1,1,0,0,0,17.91,29Z"/><path d="M25.86,29A1,1,0,0,0,25,30.14c.4,2.78.86,10.57-1.72,13.15a1,1,0,0,0,0,1.42,1,1,0,0,0,1.42,0c3.81-3.81,2.34-14.4,2.28-14.85A1,1,0,0,0,25.86,29Z"/><path d="M46.32,30.09a1,1,0,0,0-2-.18c-.1,1.17-1,11.56,2.29,14.8a1,1,0,0,0,1.42,0,1,1,0,0,0,0-1.42C45.84,41.11,46.05,33,46.32,30.09Z"/><path d="M38.31,30.14a1,1,0,0,0-2-.28c-.06.45-1.53,11,2.28,14.85a1,1,0,0,0,1.42,0,1,1,0,0,0,0-1.42C37.45,40.72,37.91,32.93,38.31,30.14Z"/></g></svg>